<?xml version="1.0" standalone="no"?><!DOCTYPE svg PUBLIC "-//W3C//DTD SVG 1.1//EN" "http://www.w3.org/Graphics/SVG/1.1/DTD/svg11.dtd"><svg t="1647609953021" class="icon" viewBox="0 0 1024 1024" version="1.1" xmlns="http://www.w3.org/2000/svg" p-id="2015" xmlns:xlink="http://www.w3.org/1999/xlink" width="200" height="200"><defs><style type="text/css"></style></defs><path d="M854.92 615.2h59.96v59.95h-59.96z" fill="#333333" p-id="2016"></path><path d="M854.92 555.25h59.96v59.96h-59.96zM854.92 495.3h59.96v59.95h-59.96zM854.92 375.4h59.96v59.95h-59.96zM854.92 315.44h59.96v59.96h-59.96z" fill="#333333" p-id="2017"></path><path d="M854.92 255.5h59.96v59.95h-59.96zM794.96 735.1h59.96v59.96h-59.96zM794.96 615.2h59.96v59.95h-59.96z" fill="#333333" p-id="2018"></path><path d="M794.96 555.25h59.96v59.96h-59.96zM794.96 495.3h59.96v59.95h-59.96z" fill="#E5E5E5" p-id="2019"></path><path d="M794.96 435.34h59.96v59.96h-59.96z" fill="#333333" p-id="2020"></path><path d="M794.96 375.4h59.96v59.95h-59.96zM794.96 315.44h59.96v59.96h-59.96z" fill="#E5E5E5" p-id="2021"></path><path d="M794.96 255.5h59.96v59.95h-59.96z" fill="#E5E5E5" p-id="2022"></path><path d="M794.96 195.54h59.96v59.96h-59.96zM735.02 795.06h59.95v59.95h-59.95z" fill="#333333" p-id="2023"></path><path d="M735.02 735.1h59.95v59.96h-59.95z" fill="#F9F9F9" p-id="2024"></path><path d="M735.02 675.15h59.95v59.96h-59.95z" fill="#333333" p-id="2025"></path><path d="M735.02 615.2h59.95v59.95h-59.95z" fill="#E5E5E5" p-id="2026"></path><path d="M735.02 555.25h59.95v59.96h-59.95zM735.02 495.3h59.95v59.95h-59.95zM735.02 435.34h59.95v59.96h-59.95z" fill="#E5E5E5" p-id="2027"></path><path d="M735.02 375.4h59.95v59.95h-59.95zM735.02 315.44h59.95v59.96h-59.95z" fill="#E5E5E5" p-id="2028"></path><path d="M735.02 255.5h59.95v59.95h-59.95z" fill="#E5E5E5" p-id="2029"></path><path d="M735.02 195.54h59.95v59.96h-59.95zM675.06 735.1h59.96v59.96h-59.96z" fill="#333333" p-id="2030"></path><path d="M675.06 675.15h59.96v59.96h-59.96z" fill="#E5E5E5" p-id="2031"></path><path d="M675.06 615.2h59.96v59.95h-59.96z" fill="#333333" p-id="2032"></path><path d="M675.06 555.25h59.96v59.96h-59.96zM675.06 495.3h59.96v59.95h-59.96zM675.06 435.34h59.96v59.96h-59.96z" fill="#F9F9F9" p-id="2033"></path><path d="M675.06 375.4h59.96v59.95h-59.96z" fill="#F9F9F9" p-id="2034"></path><path d="M675.06 315.44h59.96v59.96h-59.96z" fill="#E5E5E5" p-id="2035"></path><path d="M675.06 255.5h59.96v59.95h-59.96zM615.12 795.06h59.95v59.95h-59.95z" fill="#333333" p-id="2036"></path><path d="M615.12 735.1h59.95v59.96h-59.95z" fill="#333333" p-id="2037"></path><path d="M615.12 675.15h59.95v59.96h-59.95z" fill="#E5E5E5" p-id="2038"></path><path d="M615.12 615.2h59.95v59.95h-59.95z" fill="#F9F9F9" p-id="2039"></path><path d="M615.12 555.25h59.95v59.96h-59.95zM615.12 495.3h59.95v59.95h-59.95zM615.12 435.34h59.95v59.96h-59.95z" fill="#F9F9F9" p-id="2040"></path><path d="M615.12 375.4h59.95v59.95h-59.95z" fill="#F9F9F9" p-id="2041"></path><path d="M615.12 315.44h59.95v59.96h-59.95z" fill="#E5E5E5" p-id="2042"></path><path d="M615.12 255.5h59.95v59.95h-59.95zM555.16 795.06h59.96v59.95h-59.96z" fill="#333333" p-id="2043"></path><path d="M555.16 735.1h59.96v59.96h-59.96z" fill="#F9F9F9" p-id="2044"></path><path d="M555.16 675.15h59.96v59.96h-59.96z" fill="#F9F9F9" p-id="2045"></path><path d="M555.16 615.2h59.96v59.95h-59.96z" fill="#F9F9F9" p-id="2046"></path><path d="M555.16 555.25h59.96v59.96h-59.96zM555.16 495.3h59.96v59.95h-59.96zM555.16 435.34h59.96v59.96h-59.96z" fill="#F9F9F9" p-id="2047"></path><path d="M555.16 375.4h59.96v59.95h-59.96z" fill="#F9F9F9" p-id="2048"></path><path d="M555.16 315.44h59.96v59.96h-59.96zM495.21 795.06h59.95v59.95h-59.95z" fill="#333333" p-id="2049"></path><path d="M495.21 735.1h59.95v59.96h-59.95z" fill="#F9F9F9" p-id="2050"></path><path d="M495.21 675.15h59.95v59.96h-59.95z" fill="#F9F9F9" p-id="2051"></path><path d="M495.21 615.2h59.95v59.95h-59.95z" fill="#F9F9F9" p-id="2052"></path><path d="M495.21 555.25h59.95v59.96h-59.95zM495.21 495.3h59.95v59.95h-59.95zM495.21 435.34h59.95v59.96h-59.95z" fill="#F9F9F9" p-id="2053"></path><path d="M495.21 375.4h59.95v59.95h-59.95z" fill="#333333" p-id="2054"></path><path d="M495.21 315.44h59.95v59.96h-59.95z" fill="#FFFFFF" p-id="2055"></path><path d="M435.26 795.06h59.96v59.95h-59.96z" fill="#333333" p-id="2056"></path><path d="M435.26 735.1h59.96v59.96h-59.96z" fill="#333333" p-id="2057"></path><path d="M435.26 675.15h59.96v59.96h-59.96z" fill="#F9F9F9" p-id="2058"></path><path d="M435.26 615.2h59.96v59.95h-59.96z" fill="#F9F9F9" p-id="2059"></path><path d="M435.26 555.25h59.96v59.96h-59.96zM435.26 495.3h59.96v59.95h-59.96zM435.26 435.34h59.96v59.96h-59.96z" fill="#F9F9F9" p-id="2060"></path><path d="M435.26 375.4h59.96v59.95h-59.96z" fill="#E5E5E5" p-id="2061"></path><path d="M435.26 315.44h59.96v59.96h-59.96zM375.31 735.1h59.95v59.96h-59.95z" fill="#333333" p-id="2062"></path><path d="M375.31 675.15h59.95v59.96h-59.95z" fill="#F9F9F9" p-id="2063"></path><path d="M375.31 615.2h59.95v59.95h-59.95z" fill="#F9F9F9" p-id="2064"></path><path d="M375.31 555.25h59.95v59.96h-59.95zM375.31 495.3h59.95v59.95h-59.95zM375.31 435.34h59.95v59.96h-59.95z" fill="#F9F9F9" p-id="2065"></path><path d="M375.31 375.4h59.95v59.95h-59.95z" fill="#FFFFFF" p-id="2066"></path><path d="M375.31 255.5h59.95v59.95h-59.95zM315.36 675.15h59.96v59.96h-59.96z" fill="#333333" p-id="2067"></path><path d="M315.36 615.2h59.96v59.95h-59.96z" fill="#333333" p-id="2068"></path><path d="M315.36 555.25h59.96v59.96h-59.96z" fill="#333333" p-id="2069"></path><path d="M315.36 495.3h59.96v59.95h-59.96zM315.36 435.34h59.96v59.96h-59.96z" fill="#FFFFFF" p-id="2070"></path><path d="M315.36 375.4h59.96v59.95h-59.96z" fill="#333333" p-id="2071"></path><path d="M315.36 315.44h59.96v59.96h-59.96z" fill="#FFFFFF" p-id="2072"></path><path d="M315.36 255.5h59.96v59.95h-59.96zM255.41 555.25h59.95v59.96h-59.95zM255.41 495.3h59.95v59.95h-59.95z" fill="#333333" p-id="2073"></path><path d="M255.41 435.34h59.95v59.96h-59.95z" fill="#FFFFFF" p-id="2074"></path><path d="M255.41 375.4h59.95v59.95h-59.95zM255.41 315.44h59.95v59.96h-59.95z" fill="#FFFFFF" p-id="2075"></path><path d="M255.41 255.5h59.95v59.95h-59.95zM195.46 495.3h59.96v59.95h-59.96zM195.46 435.34h59.96v59.96h-59.96z" fill="#333333" p-id="2076"></path><path d="M195.46 375.4h59.96v59.95h-59.96zM195.46 315.44h59.96v59.96h-59.96z" fill="#333333" p-id="2077"></path><path d="M135.51 435.34h59.95v59.96h-59.95z" fill="#FF8A61" p-id="2078"></path><path d="M135.51 375.4h59.95v59.95h-59.95z" fill="#FF5F5F" p-id="2079"></path><path d="M75.55 375.4h59.96v59.95H75.55z" fill="#FF8080" p-id="2080"></path></svg>